<?xml version="1.0" standalone="no"?>
<!DOCTYPE svg PUBLIC "-//W3C//DTD SVG 20010904//EN"
 "http://www.w3.org/TR/2001/REC-SVG-20010904/DTD/svg10.dtd">
<svg version="1.0" xmlns="http://www.w3.org/2000/svg"
 width="50.000000pt" height="65.000000pt" viewBox="0 0 50.000000 65.000000"
 preserveAspectRatio="xMidYMid meet">

<g transform="translate(0.000000,65.000000) scale(0.100000,-0.100000)"
fill="#000000" stroke="none">
<path d="M157 578 c-5 -37 -24 -83 -74 -172 -79 -142 -90 -199 -55 -279 65
-147 308 -172 411 -41 54 68 62 188 20 284 -19 42 -94 130 -111 130 -4 0 -8
-17 -8 -37 0 -22 -10 -53 -22 -73 l-22 -35 -8 45 c-18 94 -39 148 -74 188 -19
23 -39 42 -43 42 -5 0 -11 -23 -14 -52z m164 -342 c23 -50 23 -74 3 -124 -35
-89 -154 -82 -154 8 0 28 8 43 36 71 19 18 44 49 56 67 23 38 33 34 59 -22z"/>
</g>
</svg>
